<svg width="28" height="28" viewBox="0 0 28 28" fill="none" xmlns="http://www.w3.org/2000/svg">
<rect width="28" height="28" rx="2" fill="#FF0000"/>
<path d="M17.8981 23.2039C22.9249 23.2039 27 19.1288 27 14.1019C27 9.1798 23.093 5.17021 18.211 5.00528L17.8981 5H10.1019C5.07507 5 1 9.07508 1 14.1019C1 19.0241 4.90705 23.0336 9.78902 23.1986L10.1019 23.2039H17.8981ZM17.5758 13.4518C16.6781 13.4518 15.9504 12.7241 15.9504 11.8264C15.9504 10.9288 16.6781 10.2011 17.5758 10.2011C18.4734 10.2011 19.2011 10.9288 19.2011 11.8264C19.2011 12.7241 18.4734 13.4518 17.5758 13.4518ZM8.7989 18.0028C8.30519 18.0028 7.89717 17.6359 7.8326 17.1599L7.82369 17.0276V15.0797L5.87328 15.0788C5.33469 15.0788 4.89807 14.6422 4.89807 14.1036C4.89807 13.6099 5.26495 13.2018 5.74095 13.1373L5.87328 13.1284L7.82369 13.1293V11.1763C7.82369 10.6377 8.26031 10.2011 8.7989 10.2011C9.29261 10.2011 9.70063 10.568 9.7652 11.044L9.77411 11.1763V13.1293L11.7245 13.1284C12.2631 13.1284 12.6997 13.565 12.6997 14.1036C12.6997 14.5973 12.3328 15.0053 11.8568 15.0699L11.7245 15.0788L9.77411 15.0797V17.0276C9.77411 17.5661 9.33749 18.0028 8.7989 18.0028ZM20.1763 18.0028C19.2787 18.0028 18.551 17.2751 18.551 16.3774C18.551 15.4798 19.2787 14.7521 20.1763 14.7521C21.074 14.7521 21.8017 15.4798 21.8017 16.3774C21.8017 17.2751 21.074 18.0028 20.1763 18.0028Z" fill="#DBDBDB"/>
</svg>
