<svg width="28" height="29" viewBox="0 0 28 29" fill="none" xmlns="http://www.w3.org/2000/svg">
<rect y="0.255005" width="28" height="28" rx="2" fill="#E7E7E7"/>
<path d="M21.7945 14.0786L22.9475 12.1256C22.9938 12.0282 23.0002 11.9165 22.965 11.8159L20.6815 5.27505C20.6112 5.07544 20.4021 4.96207 20.1993 5.01157L13.4876 6.64677C13.3598 6.67871 13.2544 6.76973 13.2049 6.89269L12.4911 8.67959H10.3146C10.2012 8.67959 10.091 8.7275 10.0144 8.81053L5.10878 14.1249C4.95708 14.2894 4.96506 14.5449 5.12635 14.6982L10.2715 19.6038C10.3465 19.6773 10.4487 19.7172 10.5525 19.7172H12.8983L13.6137 21.5041C13.6664 21.6366 13.7846 21.7309 13.9235 21.7548L21.0616 22.9812C21.0839 22.986 21.1079 22.9876 21.1302 22.9876C21.3203 22.9876 21.4879 22.8566 21.5294 22.6666L22.9778 16.0316C23.0002 15.9294 22.9826 15.8224 22.9267 15.7314L21.7945 14.0786ZM12.4911 8.67959L18.2527 7.62406L15.2202 13.5852H8.33926L12.4911 8.67959ZM12.8999 19.7172L8.33926 15.2204H15.2202L18.7972 20.6035L12.8999 19.7172ZM20.2839 19.6757L16.8554 14.4028L19.8527 8.44166L21.7945 14.0802L20.2839 19.6757Z" fill="black"/>
</svg>
