<svg width="28" height="28" viewBox="0 0 28 28" fill="none" xmlns="http://www.w3.org/2000/svg">
<rect width="28" height="28" rx="2" fill="#A2A2A2"/>
<path d="M21.7945 13.8236L22.9475 11.8706C22.9938 11.7732 23.0002 11.6615 22.965 11.5608L20.6815 5.02005C20.6112 4.82044 20.4021 4.70706 20.1993 4.75656L13.4876 6.39176C13.3598 6.4237 13.2544 6.51472 13.2049 6.63768L12.4911 8.42459H10.3146C10.2012 8.42459 10.091 8.47249 10.0144 8.55553L5.10878 13.8699C4.95708 14.0344 4.96506 14.2899 5.12635 14.4432L10.2715 19.3488C10.3465 19.4223 10.4487 19.4622 10.5525 19.4622H12.8983L13.6137 21.2491C13.6664 21.3816 13.7846 21.4758 13.9235 21.4998L21.0616 22.7262C21.0839 22.731 21.1079 22.7326 21.1302 22.7326C21.3203 22.7326 21.4879 22.6016 21.5294 22.4116L22.9778 15.7766C23.0002 15.6744 22.9826 15.5674 22.9267 15.4764L21.7945 13.8236ZM12.4911 8.42459L18.2527 7.36905L15.2202 13.3302H8.33926L12.4911 8.42459ZM12.8999 19.4622L8.33926 14.9654H15.2202L18.7972 20.3485L12.8999 19.4622ZM20.2839 19.4207L16.8554 14.1478L19.8527 8.18665L21.7945 13.8252L20.2839 19.4207Z" fill="black"/>
</svg>
