<svg width="24" height="25" viewBox="0 0 24 25" fill="none" xmlns="http://www.w3.org/2000/svg">
<g clip-path="url(#clip0_2821_2093)">
<path d="M19.7945 12.0786L20.9475 10.1256C20.9938 10.0282 21.0002 9.91646 20.965 9.81585L18.6815 3.27505C18.6112 3.07544 18.4021 2.96207 18.1993 3.01157L11.4876 4.64677C11.3598 4.67871 11.2544 4.76973 11.2049 4.89269L10.4911 6.67959H8.3146C8.20122 6.67959 8.09103 6.7275 8.01438 6.81053L3.10878 12.1249C2.95708 12.2894 2.96506 12.5449 3.12635 12.6982L8.27148 17.6038C8.34653 17.6773 8.44873 17.7172 8.55253 17.7172H10.8983L11.6137 19.5041C11.6664 19.6366 11.7846 19.7309 11.9235 19.7548L19.0616 20.9812C19.0839 20.986 19.1079 20.9876 19.1302 20.9876C19.3203 20.9876 19.4879 20.8566 19.5294 20.6666L20.9778 14.0316C21.0002 13.9294 20.9826 13.8224 20.9267 13.7314L19.7945 12.0786ZM10.4911 6.67959L16.2527 5.62406L13.2202 11.5852H6.33926L10.4911 6.67959ZM10.8999 17.7172L6.33926 13.2204H13.2202L16.7972 18.6035L10.8999 17.7172ZM18.2839 17.6757L14.8554 12.4028L17.8527 6.44166L19.7945 12.0802L18.2839 17.6757Z" fill="#607B96"/>
</g>
<defs>
<clipPath id="clip0_2821_2093">
<rect width="24" height="24" fill="white" transform="translate(0 0.255005)"/>
</clipPath>
</defs>
</svg>
